<?xml version="1.0"?><svg width="640" height="480" xmlns="http://www.w3.org/2000/svg">
 <title>Rest in Peace wings</title>
 <metadata id="metadata2156">image/svg+xml</metadata>
 <g>
  <title>Layer 1</title>
  <path d="m227.457001,443.321014c-0.949005,-1.143005 -2.950012,-1.323029 -9.552002,-0.857025c-7.199005,0.507996 -8.972992,0.296997 -12.859009,-1.528992c-2.479004,-1.165009 -4.872986,-2.72699 -5.320984,-3.468994c-1.490021,-2.473999 -4.345001,-2.723999 -8.264008,-0.725006c-5.457993,2.785004 -13.087997,1.80899 -17.731003,-2.268005c-4.463989,-3.919983 -5.511002,-6.052002 -6.223999,-12.682007l-0.593994,-5.523987l-5.5,-0.044006c-8.582001,-0.067993 -14.619995,-2.182983 -18.123001,-6.348999c-3.281998,-3.902985 -3.178009,-2.518982 -1.621994,-21.606995c0.203995,-2.496002 -0.09201,-2.950989 -1.755005,-2.703003c-11.041,1.639008 -19.022995,0.614014 -20.253006,-2.600006c-0.358002,-0.932983 -1.408997,-2.371979 -2.335999,-3.196991c-2.279999,-2.028992 -3.929001,-9.556 -3.227005,-14.731995c0.424011,-3.126007 0.214005,-4.322998 -0.804993,-4.580017c-0.759003,-0.191986 -4.979004,-1.490997 -9.378998,-2.886993c-4.400009,-1.395996 -10.699997,-3.335999 -14,-4.309998c-8.591995,-2.536011 -17.494003,-6.367981 -21.182007,-9.117004c-1.75,-1.304993 -4.224991,-2.781982 -5.5,-3.281982c-4.603996,-1.809021 -11.915993,-7.862 -15.825996,-13.102997c-4.606003,-6.173004 -4.211998,-5.169006 -4.400002,-11.208008c-0.105995,-3.394989 -0.744995,-5.274994 -2.275002,-6.701019c-3.937996,-3.667999 -8.094994,-15.044983 -10.187698,-27.881989c-0.565102,-3.466003 -0.788101,-6.924988 -0.495598,-7.686981c0.292503,-0.762024 -1.592102,-5.802002 -4.188103,-11.199005c-2.954399,-6.141998 -4.900299,-11.683014 -5.202499,-14.812012c-0.274498,-2.843994 -1.264999,-5.863007 -2.297096,-7c-3.157898,-3.480988 -8.9524,-16.894989 -9.962402,-23.063004c-2.069099,-12.634995 -0.349602,-20.237991 6.060501,-26.793991l3.0243,-3.093002l-0.203796,-16.024994l-0.203705,-16.025009l6.313599,-12.5c3.472603,-6.875 6.8974,-12.845001 7.610703,-13.266998c2.0028,-1.184006 2.926804,-9.412003 1.2798,-11.395996c-0.751099,-0.904999 -1.204903,-1.688004 -1.008904,-1.740997c0.196007,-0.053009 0.039001,-3.059006 -0.348801,-6.681c-0.560593,-5.235001 -0.2743,-8.103012 1.397705,-14c2.389,-8.42701 6.786995,-17.608009 9.950996,-20.772003c1.179001,-1.179001 2.144005,-2.725006 2.144005,-3.435005c0,-0.710999 2.024994,-3.278999 4.5,-5.708c3.105995,-3.0494 4.5,-5.243401 4.5,-7.086502c0,-4.146095 2.540001,-9.253395 6.960999,-13.993797c2.220993,-2.382401 4.039001,-5.129898 4.039001,-6.105598c0,-6.465599 8.084,-18.727299 18.951004,-28.745499c8.171997,-7.533604 13.334,-10.305901 17.338989,-9.312801c3.189011,0.790901 7.710007,4.152901 7.710007,5.7341c0,0.744801 -1.729996,4.876598 -3.845001,9.1819c-10.501007,21.381397 -13.139999,29.600101 -13.871002,43.207996c-0.326996,6.089005 -0.072006,13.323204 0.617996,17.500206c0.646011,3.916 1.656998,10.044998 2.247009,13.619995c0.588989,3.574997 2.311996,9.425003 3.828995,13c1.516006,3.574997 3.345001,8.074997 4.063995,10c0.719009,1.925003 2.070007,4.625 3.001999,6c0.932007,1.375 2.712006,4.525009 3.955002,7c1.244003,2.475006 2.876999,4.859009 3.631012,5.298996c0.752991,0.440002 1.369995,1.281006 1.369995,1.868011c0,0.922989 4.436996,7.304001 12.752991,18.341995c1.240005,1.645004 3.940002,5.544006 6,8.664001c2.061005,3.121002 6.447006,8.002991 9.747009,10.849991c3.300003,2.847 9.263,8.352005 13.251999,12.234009c9.434006,9.181992 20.007996,16.533005 43.35199,30.140991c3.981995,2.320999 11.25,7.476013 23.395996,16.591995c4.400024,3.303009 10.025024,7.34201 12.5,8.97702c5.71701,3.776978 17.406006,16.643005 18.651001,20.528992c0.35202,1.097992 1.184998,2.447998 1.851013,3c2.140991,1.773987 4.632996,9.731995 5.212006,16.640015c0.98999,11.802979 -3.748993,21.778992 -12.240021,25.770996c-2.429993,1.141998 -5.162994,3.213989 -6.073975,4.604004c-2.249023,3.431976 -1.406006,10.437988 1.718994,14.29599c2.561981,3.161987 11.855988,9.415985 15.901001,10.697998c9.513,3.016998 15.339996,11.919006 15.195984,23.216003l-0.083984,6.587006l4.790009,4.615997c5.523987,5.324982 7.554993,8.85199 8.551971,14.854004c0.622009,3.740997 1.360016,4.704987 5.868011,7.667999c6.416992,4.215973 13.65799,11.02298 13.65799,12.838989c0,0.751007 -1.013,2.312012 -2.25,3.467987c-4.090973,3.822998 -15.281982,3.891022 -33.312988,0.203003c-7.675995,-1.569977 -14.429993,-0.618988 -17.802002,2.506012c-2.565002,2.376984 -4.837006,9.320007 -6.596985,20.160004c-1.034027,6.372986 -2.244019,8.675995 -5.94101,11.307983c-3.514008,2.502014 -12.174011,2.887024 -14.052002,0.624023zm8.987,-3.071014c3.864014,-1.997986 5.809998,-5.992004 7.990997,-16.401001c2.083008,-9.937988 6.899994,-19.559998 10.240997,-20.455994c3.304993,-0.886017 10.312012,-0.752014 12.938995,0.247986c8.470001,3.222015 13.872009,4.376007 21.516022,4.59201c10.332001,0.294006 12.280975,-0.108002 12.280975,-2.535004c0,-2.658997 -6.519989,-8.583008 -11.569,-10.510986c-4.064972,-1.552002 -4.388977,-1.957001 -5.029999,-6.290009c-0.829987,-5.610016 -5.974976,-13.993988 -10.548981,-17.19101c-4.641022,-3.243988 -4.674011,-3.330994 -4.292023,-11.316986c0.46701,-9.748016 -2.152985,-14.360016 -10.309998,-18.147003c-10.449982,-4.85199 -17.702972,-9.768005 -21.25,-14.402008c-3.281982,-4.287994 -3.492981,-5.014984 -3.381989,-11.65799c0.166992,-10.007996 3.674988,-15.415009 10,-15.415009c3.916016,0 6.425995,-2.82901 9.281006,-10.460999c1.829987,-4.890991 1.873993,-5.751007 0.575989,-11.316986c-2.328003,-9.978027 -8.712982,-21.21402 -15.777985,-27.765015c-3.40802,-3.160004 -7.997009,-7.424011 -10.197021,-9.473999c-2.199982,-2.050995 -5.574982,-4.527008 -7.5,-5.502014c-1.924988,-0.974976 -5.974976,-3.644989 -9,-5.93399c-3.024994,-2.289001 -11.349976,-7.671997 -18.5,-11.96199c-29.317993,-17.59201 -49.609985,-33.046005 -59.999985,-45.695007c-33.873001,-41.237991 -46.270004,-66.647003 -50.029007,-102.539001c-0.410995,-3.917999 -0.103989,-8.997993 0.846008,-14.000298c0.819,-4.3181 2.048996,-11.080002 2.731995,-15.026398c0.684006,-3.946404 2.716995,-10.246399 4.516998,-14c1.80101,-3.753601 2.899002,-7.2132 2.44101,-7.688103c-1.320007,-1.366299 -9.412003,3.2057 -14.429001,8.151802c-2.516006,2.480797 -6.02301,7.480797 -7.792999,11.111099c-2.880005,5.907501 -3.206009,7.466599 -3.104004,14.850502c0.063004,4.537498 -0.278,8.25 -0.757004,8.25c-1.095001,0 -3.923996,-5.372505 -3.923996,-7.450302c0,-2.9823 -1.932007,-1.5158 -2.899002,2.200302c-1.119003,4.301697 -2.491997,17.193398 -2.343002,22.005402c0.153999,5.005997 3.880005,11.827995 9.492004,17.377991c5.222992,5.167007 4.951996,8.143005 -0.365005,4.016006c-1.311996,-1.018005 -3.466003,-2.421005 -4.787003,-3.117004l-2.401993,-1.264999l0.666,4.863007c0.367004,2.673996 1.778992,8.463989 3.138,12.865997c2.716003,8.800003 7.014999,14.416992 13.757996,17.981003c2.057999,1.087997 3.742004,2.334 3.742004,2.768997c0,1.209 -5.169998,-0.307007 -8.154999,-2.391998c-3.332001,-2.328003 -3.845001,-2.320007 -3.845001,0.059998c0,3.287994 12.233002,22.085999 14.373001,22.085999c1.889999,0 9.04599,3.912994 8.377991,4.581009c-0.194,0.194992 -2.016998,-0.157013 -4.050995,-0.781006c-4.317993,-1.326004 -5.539993,-0.625 -3.589996,2.059006c0.763992,1.051987 3.834991,5.338989 6.822998,9.526993c2.988998,4.186996 5.785995,7.613998 6.216003,7.613998c0.429001,0 2.909988,1.350006 5.511993,3c2.602005,1.650009 5.712006,3 6.912003,3c2.332993,0 5.156998,2.602997 4.037994,3.722c-0.582001,0.582001 -4.299988,-0.233994 -10.860992,-2.382996c-3.162003,-1.035004 -1.824005,1.050995 5.856003,9.136993c6.187988,6.514008 8.404999,8.186005 12.102997,9.125c7.759995,1.970001 9.737,0.242996 7.194992,-6.285995c-1.378998,-3.541 -1.360001,-16.259995 0.026001,-17.645004c1.804001,-1.804993 2.401001,0.106003 2.679001,8.582001c0.238007,7.255005 0.694,9.029999 3.785004,14.748001c6.145996,11.365005 17.434998,22.79599 33.106003,33.522003c2.75,1.881989 6.800003,4.690002 9,6.23999c6.639999,4.678009 23.668991,13.386993 25.102005,12.837006c4.376007,-1.678986 14.39798,5.618988 14.39798,10.485016c0,3.622986 -1.848999,3.769989 -5.015991,0.398987c-1.300995,-1.384003 -4.036011,-3.018005 -6.079987,-3.630005c-3.390015,-1.015991 -4.085999,-0.862 -7.970001,1.766998c-11.466003,7.759003 -7.136993,23.742004 7.087982,26.171021c2.376007,0.404999 4.493011,1.254974 4.70401,1.888c0.605011,1.812988 -2.899994,2.414978 -8.247009,1.415985c-4.065002,-0.76001 -5.541992,-0.593994 -8.598999,0.966003c-4.576996,2.334991 -7.55899,6.031982 -8.908997,11.04599c-0.862,3.201019 -0.71199,4.480011 0.896011,7.632019c2.149994,4.213989 6.804001,9.266998 8.518997,9.248993c0.613007,-0.007019 3.436981,-0.631012 6.277008,-1.386993c3.71698,-0.989014 5.467987,-1.070007 6.25,-0.288025c1.919983,1.920013 1.18399,3.506012 -3.413025,7.348999c-2.474976,2.068024 -4.5,4.193024 -4.5,4.721008c0,0.527008 -0.720001,1.753998 -1.598999,2.725006c-2.596985,2.871002 -0.994995,9.162994 3.292023,12.928009c4.063995,3.566986 7.86499,5.242981 10.188995,4.490997c0.889984,-0.289001 2.704987,-2.123993 4.03299,-4.07901c3.117004,-4.587982 5.472992,-5.889984 7.10199,-3.928009c0.983002,1.184021 0.902008,1.927002 -0.405975,3.729004c-9.132996,12.588013 -10.122009,19.639008 -3.334015,23.778015c5.032013,3.067993 7.880005,2.53598 13.511017,-2.527008c2.752991,-2.475006 5.224976,-4.5 5.493988,-4.5c0.268005,0 1.23999,1.14801 2.160004,2.552002c1.622009,2.475006 1.580994,2.657013 -1.335999,5.979004c-3.380005,3.850006 -4.653015,8.738007 -3.65802,14.044006c0.557007,2.968994 1.381012,3.89798 4.861023,5.477997c6.876984,3.121979 9.740997,2.341003 13.34198,-3.641022c1.054016,-1.750977 1.209015,-1.768982 1.838013,-0.210999c1.027008,2.542023 -6.446991,20.799011 -8.515015,20.799011c-1.427979,0 -1.177979,-3.087006 0.512024,-6.326996c0.91098,-1.746002 1.046997,-2.68399 0.35498,-2.45401c-0.615997,0.205994 -2.744995,3.498016 -4.730988,7.317017c-3.942017,7.580994 -5.093018,8.880005 -6.562988,7.41098c-0.627014,-0.626984 -0.361023,-2.61499 0.750977,-5.61499c0.947021,-2.554993 1.544006,-4.824005 1.326019,-5.041992c-1.275024,-1.274017 -4.872009,7.937988 -7.431,19.028992l-2.957001,12.819l2.621979,2.431c3.084015,2.860016 3.347015,2.893005 7.174011,0.914001zm-4.532013,-6.07901c5.540009,-4.822998 7.5,-5.865997 7.5,-3.98999c0,1.819 -5.588989,6.098999 -9,6.890991c-2.18399,0.507996 -1.993988,0.141022 1.5,-2.901001zm9.946014,-48.492004c-1.256989,-2.033997 1.234985,-3.248993 3.463013,-1.687988c1.142975,0.799988 1.780975,1.752014 1.417999,2.11499c-1.042023,1.042023 -4.141022,0.77002 -4.881012,-0.427002zm-22.446014,-18.289978c0,-1.968018 2.343018,-3.647003 3.817017,-2.735016c0.687988,0.425018 0.962006,1.524017 0.609985,2.442993c-0.769989,2.006012 -4.427002,2.247009 -4.427002,0.292023zm-19.031982,-25.205994c-1.164001,-3.061005 -0.542999,-4.416016 2.02301,-4.416016c2.322998,0 3.595978,3.587006 1.968994,5.548004c-1.753021,2.110992 -2.881012,1.790985 -3.992004,-1.131989zm-11.218018,-31.498016c-3.480988,-2.023987 -1.435989,-6.917999 2.891022,-6.917999c3.042999,0 3.725006,1.472015 2.164978,4.671997c-1.529999,3.139008 -2.65799,3.640015 -5.056,2.246002zm7.835022,-33.824005c-1.145996,-1.266998 -1.473022,-2.694 -1.025024,-4.47699c0.72403,-2.886017 2.14801,-3.282013 4.808014,-1.338013c1.407013,1.029999 1.554993,1.792999 0.752014,3.903015c-1.367004,3.597992 -2.556,4.098999 -4.535004,1.911987zm-55.373016,-71.479996c-2.223999,-2.412003 -4.695999,-5.675003 -5.493988,-7.25c-1.769012,-3.490997 -3.110001,-10.375 -2.014008,-10.335999c0.438004,0.016006 2.820999,3.436996 5.296005,7.602997c2.474991,4.166 5.737,8.459 7.25,9.540009c1.511993,1.080002 2.75,2.608994 2.75,3.397003c0,2.806992 -3.809998,1.362 -7.78801,-2.95401zm76.735992,230.41301c2.40802,-1.289001 2.991028,-2.966003 4.530029,-13.027008c0.941986,-6.158997 2.501984,-10.979004 5.66098,-17.5c2.39801,-4.950012 4.526001,-9.382996 4.72702,-9.850006c1.204987,-2.792999 -5.35202,3.433014 -9.348022,8.876007c-2.613983,3.559998 -5.127991,6.473999 -5.587982,6.473999c-1.894012,0 2.233978,-9.566986 6.112976,-14.166992c2.296021,-2.722015 4.012024,-5.110016 3.815002,-5.304993c-0.625977,-0.622009 -4.242981,2.820984 -7.848999,7.471985c-4.675995,6.031006 -8.009003,9.652008 -8.009003,8.700012c0,-1.443024 4.203003,-9.153015 8.287018,-15.200012c3.587006,-5.312988 2.536987,-6.140991 -1.268005,-1c-0.813995,1.100006 -2.917999,3.59201 -4.674988,5.539001c-1.758026,1.946014 -5.473022,8.769012 -8.256012,15.161987c-4.688995,10.768005 -4.997009,11.963013 -4.195007,16.257019c0.476013,2.548981 1.032013,4.761993 1.235992,4.919006c4.775024,3.678986 10.863007,4.766998 14.819,2.649994zm-11.292999,-4.856018c-2.25,-2.487 -2.192993,-4.518982 0.095001,-3.337982c0.962006,0.496979 3.417023,1.203979 5.45401,1.571991c2.692017,0.485016 3.550995,1.067993 3.143005,2.131012c-0.807007,2.102997 -6.682007,1.855988 -8.692017,-0.365021zm1.353027,-7.144989c-1.175018,-0.743011 -1.232025,-1.203003 -0.27002,-2.165009c0.962006,-0.960999 1.757019,-0.93399 3.740997,0.128021c1.387024,0.741974 2.520996,1.722992 2.520996,2.179993c0,1.125 -4.141998,1.026001 -5.991974,-0.143005zm-23.40802,8.056c1.595001,-0.503998 4.024994,-1.161987 5.399994,-1.460999c1.628998,-0.354004 2.96402,-1.688995 3.834015,-3.832001c0.733002,-1.80899 1.721985,-4.188995 2.196991,-5.289001c0.475006,-1.100006 2.231995,-5.375 3.906006,-9.5c3.061005,-7.54599 7.833008,-15.165009 15.95401,-25.476013c2.414978,-3.065979 4.09198,-5.873993 3.72699,-6.23999c-0.36499,-0.36499 -2.791992,1.390015 -5.390991,3.899994c-5.904022,5.700012 -14.22702,10.688019 -14.22702,8.526001c0,-0.813995 1.012024,-2.165985 2.25,-3.002991c1.237,-0.838013 4.275024,-3.423004 6.75,-5.746002c4.363007,-4.095001 3.065002,-3.734009 -2,0.556c-2.906982,2.462006 -10.77298,6.042999 -11.554993,5.261017c-0.294006,-0.294006 2.298004,-2.790009 5.76001,-5.547028c12.100983,-9.635986 13.01001,-13.059998 1.097992,-4.133972c-9.845001,7.375977 -22.634995,19.255981 -24.285004,22.556976c-0.78299,1.565002 -2.378998,3.971008 -3.547989,5.346008c-1.167999,1.375 -2.719009,4.397003 -3.445999,6.716003c-1.792999,5.717987 0.474991,11.897003 5.743988,15.644989c4.220001,3.003021 3.961014,2.946014 7.832001,1.721008zm-4.849991,-5.162994c-1.80101,-1.048004 -4.75,-5.966003 -4.75,-7.92099c0,-0.605011 1.584991,0.108978 3.522995,1.586975c2.458008,1.875 4.725006,2.687012 7.5,2.687012c4.052002,0 5.044006,1.26001 2.777008,3.527985c-1.45401,1.45401 -6.641998,1.522003 -9.050003,0.119019zm0.110001,-7.886017c-1.927002,-1.605988 -2.048004,-1.972992 -0.656998,-2c2.233002,-0.043976 6.796997,2.056 6.796997,3.127014c0,1.549011 -3.755005,0.859009 -6.139999,-1.127014zm-8.197998,-17.28299c4.408997,-4.537994 8.843994,-9.531006 9.854996,-11.096008c1.011002,-1.565979 4.796005,-4.828979 8.410995,-7.250977c8.779999,-5.88501 17.502014,-13.899017 16.640991,-15.290009c-0.944,-1.528015 -3.244995,-1.401001 -3.86499,0.213989c-0.622986,1.623016 -13.040009,7.673004 -15.748993,7.673004c-2.889999,0 -2.381012,-1.312012 1.294983,-3.333008c2.878021,-1.583984 11.761017,-8.707001 9.25,-7.417999c-0.549988,0.282013 -3.25,1.51001 -6,2.727997c-2.75,1.218018 -6.233994,2.809998 -7.740982,3.537018c-1.684006,0.812988 -2.971008,0.951996 -3.335999,0.360992c-0.893005,-1.445007 1.638992,-4.003998 5.576996,-5.635986c4.57399,-1.896027 12.999985,-7.345001 12.999985,-8.40802c0,-1.602997 -2.756989,-0.800995 -9.099976,2.649994c-11.068008,6.02002 -25.10701,12.514008 -27.087006,12.528015c-2.361008,0.018005 -11.264999,4.770996 -13.408005,7.15799c-3.203995,3.569 -4.253998,6.050018 -5.268997,12.453003c-1.421005,8.964996 1.740997,15.102997 8.444992,16.39502c9.833008,1.893982 10.384003,1.68399 19.081009,-7.265015zm-20.487,1.5c-2.641998,-2.237 -3.358002,-3.704987 -3.835007,-7.86499c-0.378998,-3.303009 -0.188995,-5.361023 0.535995,-5.809021c0.766998,-0.473999 1.124008,0.71701 1.124008,3.753998c0,2.868011 0.668991,5.275024 1.884995,6.777008c1.650009,2.037018 2.658005,2.300995 8.059998,2.109009c6.774002,-0.240997 7.37001,1.04599 1.269012,2.740997c-5.151001,1.429993 -5.384003,1.386993 -9.039001,-1.707001zm4.024994,-5.450012c-1.669006,-1.668976 -1.501007,-3.799988 0.300003,-3.799988c0.932999,0 1.5,0.944 1.5,2.5c0,2.850006 -0.145004,2.954987 -1.800003,1.299988zm87.799988,2.641022c0,-0.243011 -0.449982,-0.44101 -1,-0.44101c-0.549988,0 -1,0.476013 -1,1.05899c0,0.582001 0.450012,0.781006 1,0.44101c0.550018,-0.339996 1,-0.816986 1,-1.05899zm-105.384995,-19.670013c1.586014,-1.225983 3.481003,-2.802002 4.210007,-3.503998c4.473999,-4.304993 11.063004,-7.65799 22.675003,-11.537994c3.300003,-1.102997 8.334,-3.067993 11.188004,-4.368011c2.852997,-1.298981 5.46199,-2.360992 5.797989,-2.360992c0.335007,0 3.121002,-1.606995 6.190994,-3.570984c6.246002,-3.995026 6.266022,-6.557007 0.032013,-3.952026c-3.837006,1.602997 -13.709,2.106018 -13.709,0.699005c0,-0.453979 3.375,-1.882996 7.5,-3.175995c4.125,-1.294006 7.499985,-2.776001 7.499985,-3.292999c0,-0.52301 -0.998993,-0.619995 -2.249985,-0.21701c-3.774002,1.21402 -22.75,1.843018 -22.75,0.753998c0,-1.089996 5.574997,-2.215973 11.05899,-2.232971c1.957001,-0.006012 4.432007,-0.672028 5.5,-1.480011c1.067001,-0.807007 2.673004,-1.481995 3.568008,-1.5c1.800995,-0.035004 4.821991,-3.031006 3.056992,-3.031006c-0.582993,0 -3.900986,0.653992 -7.371994,1.45401c-3.472,0.798981 -9.912003,1.699982 -14.311996,2.001984c-16.165009,1.108002 -19.235001,1.822998 -29.423996,6.848022c-5.255005,2.59198 -9.983002,8.207977 -12.468002,14.812988c-2.165009,5.751984 -2.327011,7.015991 -1.283005,10.053009c2.337006,6.797974 4.397003,8.496979 11.789993,9.72699c0.338013,0.057007 1.91301,-0.899994 3.5,-2.126007zm-5.61499,-4.481995c-2.912003,-1.056 -6,-4.666992 -6,-7.015015l0,-2.376984l2.25,2.330994c1.237,1.282013 3.522995,2.886017 5.078003,3.565002c3.910995,1.708008 2.679001,4.949005 -1.328003,3.496002zm-0.048996,-8.127014c-3.109009,-2.518982 -1.723007,-4.713989 1.600998,-2.53598c2.366989,1.550995 3.373001,4.373993 1.557999,4.373993c-0.488998,0 -1.910004,-0.828003 -3.158997,-1.838013zm-13.008011,-13.332001c1.524002,-1.635986 1.749008,-2.495972 0.916,-3.5c-0.606995,-0.731995 -1.741989,-1.329987 -2.522003,-1.329987c-0.778992,0 -3.311996,-1.005005 -5.626999,-2.233002c-4.127991,-2.188995 -4.155991,-2.23999 -1.446991,-2.567993c2.550003,-0.30899 2.317993,-0.571014 -3,-3.386993c-6.507004,-3.446014 -6.776001,-3.632996 -6.132996,-4.276001c0.253998,-0.253998 2.916992,0.190002 5.915985,0.988983c10.660004,2.835999 11.960007,1.565002 1.95401,-1.911987c-14.01001,-4.869019 -22.287003,-8.936005 -34.5,-16.950012c-6.111008,-4.009979 -12.249008,-10.247986 -11.158005,-11.338989c0.332001,-0.332001 2.173004,0.593994 4.091003,2.057007c5.485992,4.184998 30.128998,16.125977 40.300003,19.528992c9.692993,3.243988 11.266998,3.570007 11.266998,2.333984c0,-0.899994 -9.192001,-5.237976 -11.141998,-5.258972c-2.021011,-0.022003 -10.143005,-2.97702 -11.674011,-4.248016c-0.732986,-0.608002 -5.235992,-2.983002 -10.007996,-5.277985c-18.636993,-8.963013 -34.498001,-21.552002 -46.982994,-37.291016c-1.818001,-2.292999 -3.731003,-4.167999 -4.25,-4.167999c-1.322006,0 -1.178001,9.630005 0.209,13.929016c2.256996,6.995972 6.057999,14.613983 8.681999,17.40097c1.465996,1.55603 5.477997,4.84201 8.916,7.300018c3.436996,2.458984 6.25,4.859985 6.25,5.337006c0,1.785004 -2.635002,1.664978 -6.728004,-0.307007c-2.325996,-1.121002 -4.564995,-1.700989 -4.976997,-1.289001c-0.791,0.790985 8.743996,10.35199 14.772995,14.812988c4.227005,3.127014 10.527008,5.001007 17.432007,5.183014c3.718994,0.098999 5,0.516998 5,1.632996c0,0.825012 -1.039001,1.647003 -2.307999,1.826996c-2.955002,0.419006 -2.378998,2.102997 1.653,4.834991c2.940002,1.993011 7.181,3.46701 17.654999,6.139008c2.199997,0.561005 5.800003,1.714996 8,2.565002c5.429993,2.097992 7.076004,2.005005 9.442993,-0.536011zm6.057007,-8.388977c0,-0.243011 -0.701996,-0.44101 -1.559006,-0.44101c-0.858002,0 -1.276993,0.457001 -0.931,1.015991c0.570999,0.923004 2.490005,0.480011 2.490005,-0.574982zm-7.813004,-1.125c-0.722,-0.287994 -1.584,-0.253021 -1.916,0.078979c-0.332993,0.333008 0.257996,0.569 1.311996,0.526001c1.165009,-0.047974 1.402008,-0.284973 0.604004,-0.60498zm66.680008,-11.652008c4.626999,-0.367004 7.055008,-1.615997 7.116989,-3.664001c0.009003,-0.274994 -5.722,-0.5 -12.733994,-0.5c-11.016998,0 -13.673996,-0.333984 -19.544006,-2.450989c-3.737,-1.348022 -7.278992,-3.035004 -7.873001,-3.75c-1.496002,-1.803009 0.473999,-1.709015 4.166,0.199982c3.126007,1.617004 27.305008,2.532013 28.744003,1.088013c1.899002,-1.906006 -3.867004,-4.322998 -11.927994,-5c-9.106003,-0.765015 -24.013,-4.681 -24.60701,-6.463989c-0.472,-1.414001 -0.030991,-1.397003 7.292007,0.280975c3.300003,0.756012 10.162003,1.684021 15.25,2.061005c8.041,0.595001 9.25,0.479004 9.25,-0.889984c0,-0.867004 -0.210007,-1.575012 -0.466003,-1.575012c-0.255997,0 -5.391998,-0.687988 -11.414001,-1.527008c-11.334,-1.580994 -20.643997,-4.065979 -34.949997,-9.328003c-8.481003,-3.118988 -10.613998,-3.233002 -18.300003,-0.971985c-2.955994,0.868988 -3.86499,1.781006 -4.899002,4.912994c-1.087997,3.29599 -1.024002,4.487 0.445007,8.333008c3.395996,8.893005 15.481995,15.845001 33.584,19.319c4.360992,0.835999 29.970993,0.790985 40.867004,-0.074005zm-53.328003,-7.519012c-7.195007,-1.396973 -8.423004,-1.98999 -12.75,-6.161987c-3.518997,-3.391998 -4.789001,-5.372009 -4.789001,-7.466003l0,-2.850983l3.645004,3.645996c2.00499,2.005005 4.479996,3.910004 5.5,4.233978c1.019989,0.324005 1.854996,0.968018 1.854996,1.433014c0,0.463989 3.261993,2.089996 7.25,3.613007c11.92099,4.552979 11.640991,5.950989 -0.710999,3.552979zm-1.539001,-8.27298c0,-0.516998 -1.682007,-1.932007 -3.738007,-3.14502c-5.007996,-2.954987 -1.903,-3.60498 3.662003,-0.765991c4.503998,2.298004 5.098999,3.537994 2.076004,4.328003c-1.100006,0.287994 -2,0.100006 -2,-0.416992zm-27.128006,-0.526001c-0.75499,-0.908997 -1.597,-4.121002 -1.871994,-7.136993c-0.44101,-4.834015 -0.854996,-5.674011 -3.5,-7.098022c-12.850998,-6.916992 -25.744995,-17.110992 -21.643005,-17.110992c0.472,0 4.962997,2.700012 9.979996,6c5.018005,3.299988 9.707001,6 10.420013,6c0.713989,0 2.298996,0.700989 3.521988,1.558014c2.589005,1.812988 4.948013,1.021973 3.207001,-1.075012c-0.612,-0.737 -3.445999,-2.55899 -6.298996,-4.049011c-13.843994,-7.231995 -42.686996,-31.175995 -42.686996,-35.436981c0,-0.549011 -0.584,-0.997009 -1.297005,-0.997009c-2.720001,0 -17.306999,-18.214996 -16.122002,-20.131989c1.007004,-1.628998 2.079002,-0.869019 5.474007,3.881989c4.646996,6.502014 26.441002,28.127991 32.502998,32.251007c2.718002,1.848999 6.787994,4.85498 9.044998,6.679993c2.255997,1.825012 4.425003,3.319 4.820007,3.319c0.393997,0 2.597,1.269989 4.896988,2.821991c4.62001,3.119019 17.167007,10.178009 18.09201,10.178009c0.322998,0 0.587997,-0.604004 0.587997,-1.341003c0,-0.738007 -2.363007,-2.623993 -5.25,-4.190002c-6.438004,-3.492981 -12.585999,-7.402985 -15.25,-9.695984c-1.100006,-0.947021 -4.339996,-3.421021 -7.199005,-5.497009c-13.811996,-10.031006 -26.681,-22.425995 -40.260994,-38.776001c-5.366005,-6.462006 -14.258507,-21.509995 -18.992203,-32.141998c-2.049797,-4.604004 -3.957298,-8.600998 -4.238998,-8.882996c-0.281601,-0.281006 -1.739105,1.259003 -3.238899,3.422989c-2.466499,3.559006 -2.737,4.826004 -2.833099,13.268005c-0.080002,7.031006 0.307793,10.07399 1.572197,12.334c0.923096,1.649994 1.681099,3.528015 1.684502,4.173004c0.003395,0.644989 1.541901,3.184998 3.4188,5.644012c1.8769,2.458984 4.049599,5.686981 4.828094,7.171997c0.778503,1.485992 3.630302,3.89798 6.337402,5.359985c2.707199,1.462006 4.922203,3.101013 4.922203,3.640991c0,2.240021 -3.514999,1.381012 -7.831406,-1.912994l-4.606796,-3.516998l0.619698,3.220001c1.029205,5.347015 5.0737,12.115997 10.655502,17.833008c5.509003,5.641998 8.943001,7.488007 19.440002,10.449005c7.543999,2.127991 7.708,4.074982 0.305,3.609985l-5.214005,-0.328003l1.494003,2.889008c1.966995,3.804993 7.609001,9.265991 9.578003,9.269989c0.858002,0.002014 3.03299,0.902008 4.834,2c1.800995,1.098022 4.500992,2.003021 6,2.01001c3.373993,0.016998 7.22699,1.006012 7.220993,1.852997c-0.002991,0.348999 -1.690994,1.34201 -3.75,2.208008l-3.744995,1.574005l4.944992,3.175995c4.219009,2.708984 5.873001,3.175995 11.25,3.175995c6.689011,0 7.707001,0.817993 4.055008,3.26001c-2.229996,1.48999 -2.205002,1.526978 2.75,4.015991c2.75,1.381989 5.841995,2.559998 6.871994,2.618011c1.630997,0.09198 1.695007,-0.108002 0.5,-1.548004zm76.128006,-12.634003c0,-2.018005 -1.207001,-2.679016 -10.25,-5.613007c-11.679001,-3.790009 -19.75,-7.785004 -19.75,-9.777008c0,-1.427979 3.658997,-0.98999 7.291,0.873016c3.322998,1.704987 19.632996,6.804993 21.763,6.804993c3.910004,0 1.438004,-2.151001 -5.636002,-4.903992c-3.863007,-1.503021 -9.699997,-4.218994 -12.971008,-6.036011c-3.270996,-1.816986 -7.175995,-3.953003 -8.676987,-4.744995c-3.186005,-1.682007 -4.130005,-2.924988 -3.274002,-4.30899c0.360001,-0.583008 3.381989,0.509979 7.30899,2.642975c3.682007,2.001007 11.195007,5.311005 16.695007,7.357025c5.5,2.04599 10.787003,4.054993 11.75,4.463989c1.231003,0.52301 1.75,0.286987 1.75,-0.79599c0,-0.847015 -1.013,-1.845001 -2.25,-2.218018c-8.650009,-2.608978 -34.333008,-15.621979 -44.757996,-22.677979c-4.96701,-3.362 -11.112,-8.337006 -13.656006,-11.057007c-5.291,-5.656006 -8.580994,-7.027008 -16.335999,-6.804993c-4.210999,0.119995 -5.910995,0.642975 -7.25,2.230988c-2.225006,2.636993 -2.290009,9.516998 -0.139008,14.569c2.945999,6.915985 5.837006,12.283997 6.618011,12.283997c0.423996,0 0.770996,0.899994 0.770996,2c0,1.100006 0.492996,2 1.095993,2c0.602997,0 3.141998,1.799988 5.641006,4c2.498993,2.200012 4.951996,4 5.451004,4c0.498001,0 4.371994,1.90799 8.608994,4.240997c10.591003,5.833008 17.636002,8.618011 24.703003,9.765991c3.300003,0.537018 8.925003,1.601013 12.5,2.365021c3.574997,0.764008 7.96199,1.442993 9.75,1.507996c2.753998,0.100983 3.25,-0.229004 3.25,-2.167999zm-59.141998,-21.007996c-3.391998,-1.546997 -8.847,-6.447021 -11.178009,-10.040009c-4.610992,-7.110992 -5.320999,-15.723999 -1.358002,-16.488007c1.37001,-0.264008 1.678009,0.503021 1.678009,4.184998c0,2.480011 0.468002,5.775024 1.039993,7.322998c0.969009,2.623016 12.542999,14.272003 14.210007,14.302002c0.412003,0.007019 0.75,0.46402 0.75,1.014008c0,1.307007 -1.863007,1.200012 -5.141998,-0.29599zm-1.074997,-10.45401c-0.839005,-0.963013 -2.108002,-2.875 -2.819,-4.25c-1.228012,-2.376984 -1.197006,-2.428986 0.621994,-1.048004c3.826004,2.903992 6.414001,5.414001 6.414001,6.222015c0,1.459991 -2.641998,0.880981 -4.216995,-0.924011zm66.973999,6.653992c-0.325012,-2.846985 -1.150009,-3.468994 -10.305008,-7.770996c-13.959991,-6.557983 -20.746994,-10.401001 -21.274002,-12.042999c-0.287994,-0.901001 0.048004,-1.197998 0.934998,-0.822998c0.763,0.322998 8.103012,3.545013 16.311005,7.160004c8.209,3.61499 15.070999,6.572998 15.25,6.572998c0.179001,0 0.326004,-0.899994 0.326004,-2c0,-1.100006 -0.563004,-2.005005 -1.25,-2.010986c-3.621002,-0.032013 -29.75,-17.615021 -29.75,-20.02002c0,-0.987 7.091003,2.494995 15.5,7.609009c9.013992,5.483002 16.289001,8.966003 17.078003,8.177002c1.107986,-1.108002 -0.276001,-2.187988 -7.833008,-6.110992c-11.718994,-6.084015 -21.194992,-12.919006 -21.578995,-15.56601c-0.406998,-2.796997 -0.738998,-2.937012 10.334,4.345001c10.246002,6.738983 18.981995,11.292999 22.555984,11.757996c4.673004,0.609009 2.877014,-1.704987 -4.317993,-5.562988c-18.377991,-9.856018 -41.888992,-27.813995 -47.375,-36.187012c-4.000992,-6.106003 -20.250992,-10.686996 -24.134995,-6.802994c-3.873993,3.873993 -2.755997,16.44899 2.358994,26.542984c3.233002,6.381012 11.080002,16.167023 14.41301,17.973022c2.192993,1.188995 8.501999,5.635986 13.011002,9.17099c5.910995,4.634003 26.712997,15.375 33.488998,17.291992c6.358002,1.798004 6.647995,1.718994 6.257004,-1.703003zm-54.881012,-34.346985c-7.674988,-5.632996 -9.375992,-8.819 -9.375992,-17.557007c0,-6 0.300003,-7.5 1.5,-7.5c1.095993,0 1.669998,1.613998 2.130997,6c0.753006,7.149994 2.565002,10.915009 7.895996,16.40799c3.731003,3.845001 4.942001,6.124023 3.223007,6.067017c-0.41301,-0.014008 -2.831009,-1.552002 -5.374008,-3.417999zm0.604004,-10.748016c-3.160004,-3.684998 -4.557999,-6.643982 -3.459991,-7.321991c1.468994,-0.90799 2.747986,0.222015 4.548996,4.016998c2.085999,4.397003 1.464996,6.283997 -1.089005,3.304993zm-30.479996,45.393005c0,-0.438995 -1.757004,-4.381989 -3.903,-8.760986c-2.147003,-4.378998 -4.229004,-10.136017 -4.626999,-12.792999c-0.570999,-3.802002 -1.487,-5.503998 -4.303009,-7.990021c-12.25,-10.811981 -19.350998,-18.807983 -17.947998,-20.210999c0.283997,-0.283997 5.054001,3.999023 10.600006,9.518005c5.544998,5.519012 10.330002,10.035004 10.632004,10.035004c0.301987,0 0.548996,-0.71701 0.548996,-1.593994c0,-0.876007 -4.438995,-5.813995 -9.863998,-10.972015c-17.318008,-16.466995 -32.797005,-37.725983 -39.113007,-53.719986c-3.332001,-8.436996 -1.728996,-8.141998 2.348,0.431992c1.923004,4.044006 5.997002,10.729004 9.053001,14.854004c3.056,4.125 7.007004,9.525009 8.781006,12c7.084991,9.886002 30.701996,32.425995 32.300003,30.828003c0.257996,-0.257996 -3.696014,-4.713013 -8.787003,-9.898987c-11.613007,-11.830017 -22.718002,-24.70401 -22.718002,-26.336014c0,-0.287994 -2.546005,-4.701004 -5.656006,-9.807999c-9.954994,-16.341995 -17.202995,-32.770996 -22.604996,-51.237c-0.797005,-2.723007 -1.874001,-5.093002 -2.393997,-5.266998c-1.813805,-0.604004 -5.475601,5.848999 -7.379501,13.005997c-2.550606,9.587997 -2.5383,17.651993 0.034195,22.451004c1.100006,2.052994 2,4.231995 2,4.843002c0,0.612 1.666306,2.827988 3.702904,4.924988l3.7024,3.812012l-2.9524,-0.737c-1.6241,-0.405014 -3.743202,-1.449005 -4.709,-2.320007c-0.965904,-0.869995 -2.041199,-1.298004 -2.389503,-0.949005c-1.747498,1.747009 5.7808,20.880005 11.005905,27.970001c2.261993,3.070007 9.089996,8.091003 12.455994,9.158997c1.101006,0.350006 2.549004,1.294022 3.216003,2.097c1.012001,1.220001 0.770996,1.462006 -1.459999,1.462006c-1.469002,0 -4.041,-0.708984 -5.715004,-1.574005c-1.673996,-0.865997 -3.214996,-1.401993 -3.423996,-1.192993c-0.656998,0.657013 9.587997,14.13501 12.903999,16.976013c1.739998,1.48999 3.860001,2.727997 4.712997,2.75c0.852005,0.021973 1.976997,0.423981 2.500008,0.892975c0.521988,0.469025 3.112,1.434021 5.753998,2.14502c5.725998,1.540985 4.975998,3.066986 -1.630997,3.322998l-4.583008,0.177002l3.205002,3.34198c3.746994,3.907013 13.563995,9.161011 17.117004,9.161011c1.358002,0 2.748001,0.450012 3.087997,1c0.343002,0.554993 -0.408997,1.006012 -1.69101,1.015015c-5.770996,0.037994 -4.87999,1.649994 5.404007,9.778992c9.531998,7.53299 12.787003,9.419006 12.787003,7.40799zm-15.275009,-23.212982c-4.076996,-3.58902 -6.084,-6.989014 -4.125,-6.989014c1.326004,0 9.581009,8.957001 9.228012,10.013c-0.208008,0.627014 -2.49501,-0.727997 -5.103012,-3.023987zm27.275009,-18.08902c0,-1.153992 -5.069,-6.480988 -8.520004,-8.953979c-2.787994,-1.997009 -8.852005,-9.90802 -8.139999,-10.62001c0.320007,-0.320007 2.897995,1.500992 5.729004,4.046005c9.977997,8.970978 8.539993,3.595978 -1.962006,-7.331009c-9.552002,-9.938995 -20.261993,-26.041 -17.319,-26.041c0.406006,0 3.744003,3.936996 7.417999,8.75c3.674011,4.811996 8.444,10.468994 10.600998,12.570999c3.610001,3.516006 3.965012,3.658005 4.457001,1.776001c0.369003,-1.410004 -0.605988,-3.371994 -3.138,-6.320999c-12.195999,-14.203003 -28.041,-39.688004 -34.368988,-55.276001c-5.328003,-13.126999 -9.526009,-25.774994 -10.326004,-31.112991c-0.918999,-6.124008 0.946999,-5.12001 2.527,1.360001c1.183998,4.856995 3.941994,10.731995 4.006004,8.53299c0.019989,-0.669998 -1.089005,-4.664993 -2.464005,-8.876999c-1.375,-4.212006 -2.5,-8.696991 -2.5,-9.966003c0,-1.268997 -0.487,-3.57399 -1.082001,-5.121994c-0.594002,-1.548996 -1.284004,-5.065002 -1.533005,-7.815002c-0.249001,-2.75 -0.704994,-6.574997 -1.014999,-8.5c-0.308998,-1.924995 -0.615997,-6.763 -0.681,-10.75c-0.064995,-3.987999 -0.370995,-7.25 -0.68,-7.25c-0.694,0 -11.044998,13.662003 -12.694,16.755005c-1.749001,3.280998 -4.314995,13.860001 -4.314995,17.787994c0,5.850998 3.676994,13.613998 9.570999,20.207001c5.832001,6.522003 5.322998,8.712997 -0.787003,3.384995c-1.806,-1.575989 -4.340996,-3.195999 -5.632996,-3.598999c-1.974007,-0.616989 -2.261002,-0.438995 -1.796005,1.115005c1.584999,5.302002 4.645004,17.908997 4.645004,19.136002c0,2.776001 7.505997,13.507004 10.985001,15.703003c8.160995,5.151993 7.113998,7.530991 -1.336006,3.037994c-3.837997,-2.041 -4.648994,-2.199005 -4.648994,-0.903992c0,2.319992 8.977997,18.375992 10.276001,18.375992c0.612999,0 2.264,1.083008 3.668991,2.406998c1.404999,1.324997 5.255005,4.024002 8.555008,5.998001c5.548004,3.319 5.774002,3.589005 3,3.585999c-1.650009,-0.001999 -4.289001,-0.675995 -5.865005,-1.498001c-4.787003,-2.496994 -4.841995,-1.776993 -0.384995,5.057999c4.679001,7.177002 8.673004,11.323013 12.714005,13.200012c3.367996,1.564987 14.035995,8.246002 14.035995,8.789993c0,0.141998 -1.574997,0.259003 -3.5,0.259003c-1.925003,0 -3.5,-0.356995 -3.5,-0.792999c0,-0.436996 -0.675003,-1.052002 -1.5,-1.369003c-0.824997,-0.317001 -1.5,-0.082001 -1.5,0.522003c0,1.501999 17.013,18.847992 19.5,19.881989c2.959991,1.230011 9.5,1.132019 9.5,-0.141998zm-4.246002,-33.662994c0.207993,-0.625992 -1.391006,-3.071991 -3.554001,-5.436996c-4.837006,-5.289001 -20.126007,-26.488007 -21.272995,-29.496994c-0.460007,-1.208008 -2.207001,-4.088013 -3.882004,-6.400009c-1.675003,-2.311996 -3.044998,-4.578003 -3.044998,-5.035995c0,-0.458008 -1.987,-5.003006 -4.415009,-10.100006c-2.427994,-5.097 -5.133987,-11.024002 -6.013,-13.17099c-2.401001,-5.863007 -3.075989,-3.548004 -0.752991,2.584991c6.36499,16.803009 16.819,35.171997 31.405991,55.182999c2.351013,3.225006 4.958008,7.050003 5.792007,8.5c2.757004,4.787003 3.156006,5.244003 4.261993,4.876007c0.603012,-0.201004 1.266006,-0.876999 1.475006,-1.503006zm286.861008,237.674011c-3.369019,-2.649017 -5.828003,-7.378998 -6.184021,-11.893005c-0.152985,-1.934998 -1.060974,-6.667999 -2.016998,-10.518005c-1.298981,-5.227997 -2.455994,-7.588013 -4.570984,-9.321991c-3.988007,-3.269012 -11.522003,-3.867004 -20.343018,-1.615021c-4.261993,1.088013 -10.911987,1.815002 -17,1.860016c-8.496002,0.062012 -10.408997,-0.227997 -12.718994,-1.924988c-1.494995,-1.09903 -2.733002,-2.799011 -2.75,-3.777008c-0.033997,-1.929993 9.085999,-10.904999 14.261017,-14.033997c4.061005,-2.455017 4.414978,-3.040009 5.776001,-9.553009c0.942993,-4.510986 2.007996,-6.238007 6.690979,-10.846008l5.569,-5.480988l0.252014,-7.153992c0.281982,-7.995026 1.290985,-11.313019 4.858002,-15.972015c2.257996,-2.949005 4.630005,-4.428986 14.960999,-9.330994c2.144989,-1.018005 6.125,-3.875 8.845001,-6.350006c4.251007,-3.868011 5.009003,-5.132996 5.391998,-9c0.576996,-5.817993 -1.162018,-9.022003 -6.162994,-11.350006c-8.591003,-4.001007 -12.541016,-10.350006 -13.257019,-21.307983c-0.509003,-7.792023 2.35202,-19.908997 5.272003,-22.333008c0.832001,-0.690002 1.519012,-1.761993 1.528015,-2.381989c0.033997,-2.417999 15.427002,-19.13501 19.319977,-20.983002c1.798004,-0.852997 4.116028,-2.487 5.151001,-3.630005c1.034027,-1.143005 3.486023,-3.046997 5.447021,-4.229004c1.960999,-1.183014 5.591003,-3.770996 8.065979,-5.752991c4.105011,-3.287018 10.857025,-8.050018 14.897003,-10.508011c8.333038,-5.072006 14.329987,-8.643997 18.102997,-10.783005c6.207031,-3.519989 17.881042,-11.977997 21.5,-15.578003c1.650024,-1.640991 7.916992,-7.332993 13.927002,-12.647995c6.47699,-5.729004 12.479004,-12.052002 14.736023,-15.524994c2.094971,-3.223999 6.85199,-9.908005 10.572998,-14.852997c3.719971,-4.946014 7.664001,-10.471008 8.763977,-12.279007c1.100037,-1.807007 3.246033,-5.326996 4.768005,-7.822006c3.944031,-6.46199 7.731995,-13.797989 7.731995,-14.975998c0,-0.552994 1.087036,-3.380997 2.415039,-6.28299c4.441956,-9.705002 6.914001,-25.395004 6.659973,-42.277405c-0.189026,-12.530403 -2.380981,-22.297905 -7.065979,-31.480904c-1.105042,-2.166698 -2.009033,-4.6754 -2.009033,-5.574898c0,-0.899502 -0.843994,-2.829899 -1.875977,-4.289799c-1.031982,-1.4599 -2.910034,-5.068501 -4.173035,-8.019203c-2.653992,-6.199699 -2.224976,-7.518799 3.394043,-10.434498c3.251953,-1.687599 4.098999,-1.762901 6.929993,-0.615902c6.046997,2.450203 18.920959,14.027302 24.925964,22.415203c1.968994,2.75 4.529053,8.085297 5.690002,11.8563c1.322998,4.300797 3.007996,7.563499 4.520996,8.7537c2.962036,2.329697 7.585999,11.363899 7.593018,14.836296c0.004028,1.6119 1.570984,4.244705 4.25,7.139099c2.335022,2.521004 5.14502,6.089005 6.244995,7.928001c1.100037,1.839005 3.23999,5.401001 4.755005,7.915001c3.272034,5.429001 2.962036,4.676003 5.789978,14.071999c2.137024,7.100998 2.183044,7.897995 0.865051,15c-1.770996,9.542999 -1.661011,16.971008 0.270996,18.410004c0.805969,0.598999 4.286011,6.852005 7.734009,13.893997l6.269958,12.805008l-0.102966,15.992996l-0.103027,15.991989l2.893982,2.703003c6.141052,5.737 8.204041,14.192001 6.230042,25.531998c-1.283997,7.373001 -5.892029,18.393997 -9.872986,23.613022c-1.641052,2.151978 -2.709045,4.916992 -2.832031,7.336975c-0.185974,3.636017 -3.171997,11.657013 -7.343018,19.721008c-1.104004,2.13501 -2.078979,6.988007 -2.500977,12.444c-0.380005,4.920013 -1.263977,10.320007 -1.965027,12c-0.701965,1.681 -1.585999,4.631012 -1.964966,6.556c-0.380005,1.924988 -2.007996,5.299988 -3.619019,7.5c-5.174011,7.06601 -6.263977,9.483002 -4.976013,11.033997c0.884033,1.06601 0.782043,2.136993 -0.434998,4.578003c-3.672974,7.360992 -9.440979,13.10199 -18.440979,18.35199c-0.908997,0.529999 -3.453003,2.147003 -5.653015,3.593018c-4.60199,3.024994 -15.135986,7.942993 -17.013,7.942993c-0.698975,0 -6.713989,1.799988 -13.36499,4c-6.651978,2.200012 -13.046021,4 -14.208984,4c-1.921021,0 -2.072021,0.43399 -1.651001,4.75c0.617004,6.321991 -1.853027,15.329987 -4.38501,15.992004c-1.052002,0.274994 -1.789978,1.217987 -1.643005,2.100006c0.564026,3.394989 -13.025024,5.199005 -19.585022,2.600006c-2.81897,-1.118011 -3.560974,1.200989 -2.020996,6.317993c3.541016,11.766998 0.106995,20.42099 -9.210999,23.212982c-2.703979,0.809998 -7.070007,1.330017 -9.700989,1.154999c-5.69696,-0.377991 -7.95697,1.06601 -7.086975,4.529022c0.81897,3.263 -2.02002,10.384003 -5.449036,13.669983c-1.890991,1.811005 -4.669983,3.015991 -8.66095,3.753998c-5.263,0.973022 -6.256042,0.873016 -9.507019,-0.953979c-3.804016,-2.138 -7.486023,-1.942017 -8.402008,0.446991c-0.291016,0.756989 -2.604004,2.352997 -5.140991,3.544983c-4.002014,1.881012 -5.716003,2.090027 -12.963013,1.578003c-6.60199,-0.466003 -8.602997,-0.28598 -9.550995,0.857025c-1.919006,2.311981 -11.108002,1.899994 -14.339996,-0.643005zm12.341003,-3.022003l2.457001,-2.044006l-2.359009,-11.673004c-2.075012,-10.266998 -6.401001,-22.158997 -7.619019,-20.94101c-0.235992,0.236023 0.299011,2.56601 1.189026,5.178009c1.567993,4.602997 1.020996,7.303009 -1.176025,5.799011c-0.569,-0.390015 -2.322998,-3.290009 -3.89798,-6.445007c-1.575012,-3.156006 -3.755005,-6.531006 -4.843994,-7.5c-1.958008,-1.743988 -1.962006,-1.729004 -0.350006,1.423004c1.587006,3.104004 1.306,6.841003 -0.43399,5.764984c-1.430023,-0.882996 -6.187012,-12.204987 -7.598022,-18.083984c-0.783997,-3.265015 1.377014,-3.763 2.864014,-0.660004c1.994995,4.161987 5.669006,5.010986 11.440002,2.643005c4.264984,-1.751007 4.902985,-2.416992 5.648987,-5.912018c1.059998,-4.961975 -0.583008,-11.005981 -3.96701,-14.595001c-1.712982,-1.815979 -2.303986,-3.287994 -1.868988,-4.656982c1.149994,-3.625 3.394012,-3.274017 8.593018,1.343994c5.549988,4.929016 8.467987,5.496002 13.396973,2.602997c5.991028,-3.515991 5.828003,-10.522003 -0.464996,-19.945007c-4.381989,-6.563995 -4.699982,-7.692993 -2.406982,-8.572998c1.005981,-0.385986 2.776978,0.727997 4.994995,3.143005c1.889984,2.058014 3.437988,4.031006 3.44101,4.38501c0.011993,1.68399 3.602997,1.682007 7.348999,-0.002991c8.264984,-3.71701 10.879974,-9.556 7.553986,-16.862c-1.057007,-2.321014 -2.928986,-4.754028 -4.160004,-5.407013c-2.703979,-1.432007 -5.743988,-4.765991 -5.722992,-6.273987c0.042999,-3.059021 1.497009,-3.396027 7.688995,-1.781006l6.205017,1.617004l2.640961,-2.46701c1.452026,-1.355988 3.761047,-4.372009 5.131042,-6.700012c2.447998,-4.161987 2.461975,-4.316986 0.872009,-9.106995c-2.795044,-8.412994 -9.142029,-12.537994 -17.027039,-11.065002c-5.096985,0.951996 -8.526001,0.472015 -8.526001,-1.192993c0,-1.115997 1.025024,-1.498993 6.429016,-2.402008c2.501007,-0.419006 5.10199,-1.830994 7.160004,-3.888977c6.90097,-6.901001 6.257965,-16.642029 -1.446014,-21.910004c-5.057007,-3.458008 -9.446991,-2.988007 -14.040985,1.503998c-5.274017,5.156006 -7.747009,1.832001 -3.572998,-4.805023c1.712006,-2.722992 7.768005,-5.570984 12.355988,-5.809998c2.088989,-0.108978 6.274994,-1.750977 9.917999,-3.888977c3.46701,-2.035004 6.616974,-3.709015 7.000031,-3.720001c0.382996,-0.011017 3.396973,-1.815002 6.69696,-4.007996c3.299988,-2.194 7.799988,-5.184021 10,-6.646027c5.059021,-3.359985 17.778015,-13.478973 18.682007,-14.861984c0.375,-0.574005 3.186035,-3.725998 6.246033,-7.003998c3.059998,-3.278 7.185974,-9.03801 9.168945,-12.799011c3.167053,-6.007996 3.610046,-7.729996 3.652039,-14.181992c0.052979,-8.061005 0.911011,-10.719009 2.838013,-8.792007c1.171997,1.172012 0.770996,13.774002 -0.671021,21.063004c-0.52002,2.626999 -0.322998,3.25 1.028992,3.25c0.919983,0 1.403992,0.434006 1.077026,0.964005c-0.328003,0.529999 0.980957,0.304993 2.908997,-0.5c1.927002,-0.805008 4.218994,-1.464005 5.092957,-1.464005c1.478027,0 16.507996,-14.944 17.360046,-17.259995c0.225952,-0.613998 -0.390991,-0.794006 -1.5,-0.436005c-6.939026,2.240005 -10.410034,3.003006 -10.994995,2.417999c-1.130005,-1.130005 1.713989,-3.722 4.082947,-3.722c1.225037,0 4.207031,-1.341995 6.627014,-2.981995c2.420044,-1.639999 4.851013,-2.99501 5.401001,-3.01001c0.549988,-0.014999 4.044983,-4.37999 7.767029,-9.697998c6.963989,-9.950989 7.377014,-12.475998 1.567993,-9.578003c-1.627991,0.812012 -3.18103,1.256012 -3.450012,0.986008c-0.77301,-0.772995 6.138,-4.718002 8.263977,-4.718002c1.348022,0 3.489014,-2.662994 7.249023,-9.013992c2.934998,-4.957001 5.733032,-9.259003 6.218994,-9.559006c0.978027,-0.604004 1.233032,-5.427002 0.286987,-5.427002c-0.328003,0 -1.789978,0.843994 -3.25,1.875c-2.602966,1.839005 -9.153992,3.805008 -9.153992,2.746002c0,-0.294998 2.130005,-1.785995 4.734009,-3.311996c4.220032,-2.473007 9.507996,-7.439011 11.468018,-10.768997c1.093994,-1.85701 5.797974,-20.087006 5.797974,-22.466003c0,-2.326996 0.501038,-2.486008 -8.380981,2.651993c-3.500977,2.024002 -3.28302,-1.296997 0.281982,-4.296997c4.416016,-3.715996 9.001038,-10.942001 9.65802,-15.222c0.77002,-5.012001 -1.080994,-23.4478 -2.647034,-26.362396l-1.259949,-2.345001l-0.689026,2.558395c-2.348999,8.7332 -5.382019,9.178703 -4.70697,0.691605c0.518982,-6.522102 -1.550049,-15.064301 -4.990051,-20.605804c-5.232971,-8.427498 -21.265991,-19.814896 -21.265991,-15.103298c0,0.572601 1.341003,3.619202 2.981018,6.770401c1.672974,3.2132 3.677979,9.453403 4.567017,14.209003c0.871948,4.663795 2.18396,11.404694 2.914978,14.979698c2.179993,10.658401 -0.085022,29.0364 -5.607971,45.500397c-7.388,22.022995 -13.296021,32.233002 -35.855042,61.960007c-2.474976,3.261002 -9.674988,11.133987 -16,17.493988c-12.537964,12.608002 -20.838013,18.684006 -49.920959,36.546005c-16.922028,10.391998 -21.777039,13.583008 -24.440033,16.05899c-0.626984,0.583008 -3.501984,2.34201 -6.389008,3.908997c-2.888,1.567017 -5.25,3.34903 -5.25,3.959015c0,0.609985 -1.083984,1.776001 -2.408997,2.591003c-3.803986,2.339996 -12.833984,11.255005 -15.759003,15.557983c-3.358978,4.940002 -7.877991,15.620026 -8.944,21.137024c-1.000977,5.181 0.832001,11.919983 4.578003,16.832001c2.08902,2.737976 3.337006,3.454987 6.013,3.454987c5.89502,0 9.471008,5.636993 9.76001,15.38501c0.165009,5.575989 -0.175995,6.915985 -2.682007,10.531982c-3.648987,5.265015 -10.001984,9.889008 -19.725006,14.355011c-10.638,4.885986 -12.983978,8.436005 -12.733002,19.265991c0.187012,8.091003 -0.255981,9.058014 -5.609985,12.251007c-2.364014,1.410004 -8.299988,11.799988 -8.97699,15.710999c-0.850006,4.916992 -1.851013,6.195007 -5.476013,6.992004c-6.194,1.359985 -13.727997,11.260986 -9.734985,12.792999c2.600983,0.997986 20.36499,-0.036987 22.763,-1.325989c4.863983,-2.615021 16.315979,-4.486023 21.502991,-3.513c2.540985,0.47699 3.79599,1.378998 4.502991,3.237976c0.539001,1.417023 1.787018,3.756012 2.77301,5.196014c2.084991,3.044983 3.742004,8.553009 4.696991,15.619995c0.768005,5.674988 2.481995,9.001007 6.309998,12.244995c3.251007,2.753998 4.933014,2.783997 8.106018,0.144012zm-7.718018,-6.309021c-2.052002,-1.880981 -3.393982,-3.757996 -2.980988,-4.17099c0.412994,-0.412994 1.760986,0.170013 2.996979,1.295013c1.235016,1.125 3.258026,2.567993 4.496002,3.205994c1.237,0.638 2.25,1.593994 2.25,2.125c0,1.993988 -3.15799,0.846985 -6.761993,-2.455017zm-9.565002,-47.240997c-0.363007,-0.362976 0.274017,-1.315002 1.417023,-2.11499c2.228973,-1.561005 4.720978,-0.346008 3.463989,1.687988c-0.73999,1.197021 -3.839996,1.469025 -4.881012,0.427002zm22.901001,-19.006989c-0.92099,-2.398987 0.972015,-3.95401 2.882996,-2.368011c0.848999,0.70401 1.542999,1.900024 1.542999,2.65802c0,1.953979 -3.656982,1.714996 -4.425995,-0.290009zm18.942993,-24.313995c-1.467987,-1.621002 -1.563995,-2.256989 -0.53299,-3.5c1.39801,-1.68399 4.582001,-2.029999 5.468994,-0.593018c0.641998,1.038025 -1.397003,6.075012 -2.458984,6.075012c-0.376007,0 -1.490997,-0.891998 -2.47702,-1.981995zm11.707001,-32.248016c-0.584991,-0.704987 -1.372986,-2.516998 -1.751984,-4.026001c-0.615997,-2.451996 -0.419006,-2.743988 1.847992,-2.743988c2.733032,0 5.989014,2.571014 5.419983,4.279999c-0.192993,0.576996 -1.272949,1.661011 -2.401001,2.410004c-1.662964,1.105011 -2.251953,1.119995 -3.11499,0.079987zm-7.000977,-33.000977c-0.584015,-0.70401 -1.362,-2.473022 -1.727997,-3.931c-0.534027,-2.128998 -0.257019,-2.779022 1.41098,-3.309021c2.687012,-0.85199 3.744019,-0.136993 4.330994,2.931c0.600006,3.141998 -2.35199,6.312012 -4.013977,4.309021zm50.776978,-69.213013c0,-0.793991 0.895996,-2.070999 1.991028,-2.837997c2.476013,-1.733994 7.162964,-8.141006 9.945007,-13.593994c2.554993,-5.007004 4.501953,-5.486008 3.555969,-0.874008c-1.013977,4.947006 -4.265991,10.837997 -8.281006,15c-3.669006,3.804001 -7.210999,4.936996 -7.210999,2.306zm-56.502991,226.194c1.506012,-1.299011 3.003998,-4.015991 3.544006,-6.425995c0.842987,-3.764008 0.557983,-4.997009 -2.886993,-12.5c-2.10202,-4.578003 -4.102997,-9.449005 -4.447021,-10.824005c-0.343994,-1.375 -2.893982,-5.181 -5.665985,-8.457001c-2.77301,-3.276001 -5.041016,-6.205994 -5.041016,-6.51001c0,-0.303986 -0.942993,-1.140991 -2.095001,-1.859985c-1.709991,-1.067993 -1.530975,-0.489014 0.978027,3.156982c4.131989,6.006012 9.409973,15.709015 8.849976,16.27002c-0.248993,0.248993 -1.977997,-1.359009 -3.842987,-3.574005c-1.86499,-2.213989 -4.904999,-5.825989 -6.756012,-8.026001c-1.85199,-2.200012 -3.802002,-4 -4.333984,-4c-0.53302,0 0.531982,1.829987 2.365997,4.067993c4.270996,5.212006 6.725006,9.820007 6.786011,12.740997c0.061981,2.975006 -1.377014,2.062012 -4.470001,-2.836975c-2.863007,-4.535004 -9.090027,-10.972015 -10.614014,-10.972015c-0.585999,0 -0.091003,1.462006 1.100006,3.25c1.190002,1.786987 2.837006,4.825012 3.660004,6.75c0.822998,1.924988 2.092987,4.850006 2.821991,6.5c0.729004,1.649994 1.848999,6.149994 2.489014,10c2.485992,14.962006 2.623993,15.158997 10.754974,15.384003c3.026001,0.083008 4.920013,-0.510986 6.803009,-2.134003zm-10.037994,-2.816986c-0.867004,-1.403015 -0.812012,-1.436005 5.290985,-3.197998c4.015015,-1.160004 5.25,-1.226013 5.25,-0.281006c0,3.442993 -8.773987,6.338989 -10.540985,3.479004zm1.540985,-7.89801c0,-1.619995 4.083008,-3.35199 5.220001,-2.214996c0.553009,0.553009 0.703003,1.494995 0.334015,2.09198c-0.830994,1.345001 -5.554016,1.449005 -5.554016,0.123016zm37.319031,6.214996c2.566956,-1.937988 4.117004,-4.22699 5.25,-7.75c1.540955,-4.794006 1.519958,-5.186005 -0.507019,-9.5c-1.163025,-2.475006 -3.11499,-6.057983 -4.338013,-7.962006c-2.23999,-3.488007 -19.65799,-21.03299 -20.882996,-21.03598c-0.362,-0.002014 -3.143982,-2.027008 -6.181976,-4.502014c-3.039001,-2.475006 -6.08902,-4.5 -6.779022,-4.5c-1.742981,0 3.563995,5.444 9.947021,10.20401c2.931,2.186005 5.072998,4.229004 4.760986,4.540985c-0.699005,0.699005 -8.444,-2.579987 -10.838013,-4.587982c-0.962982,-0.807007 -1.75,-1.009003 -1.75,-0.447998c0,0.559998 1.800018,2.265991 4,3.790985c2.200012,1.523987 4,3.428009 4,4.230988c0,2.107025 -8.325989,-2.850983 -14.034973,-8.356995c-7.593018,-7.324982 -8.296021,-5.408997 -1.207001,3.287994c9.721985,11.929016 11.040985,14.257019 18.750977,33.106018c3.184998,7.787994 4.206024,9.359985 6.391022,9.837982c1.429993,0.313019 3.724976,0.944 5.099976,1.402008c3.879028,1.294006 4.432983,1.177002 8.319031,-1.757996zm-12.664001,-4.07901c-2.429993,-2.68399 -2.121033,-3.004974 2.890991,-3.004974c3.427002,0 5.440979,-0.682007 8.179016,-2.77002c2.735962,-2.087006 3.464966,-2.334991 2.953979,-1.001984c-0.374023,0.972992 -0.679016,2.117004 -0.679016,2.540985c0,0.425018 -1.104004,1.963013 -2.453003,3.419006c-2.968994,3.20401 -8.365967,3.609009 -10.891968,0.816986zm3.344971,-5.810974c0,-1.323029 3.593018,-3.297028 6,-3.295013l2.5,0.001007l-2.360962,1.96698c-2.236023,1.863007 -6.139038,2.706024 -6.139038,1.327026zm36.237,-11.929016c2.150024,-0.878998 4.871033,-5.321991 5.452026,-8.902985c1.597961,-9.847015 -3.513,-19.96701 -12.14502,-24.051025c-2.880005,-1.362 -5.804016,-2.47699 -6.495972,-2.47699c-0.692017,0 -3.498047,-1.125 -6.235046,-2.5c-2.737976,-1.375 -5.740967,-2.5 -6.672974,-2.5c-0.932007,0 -2.752991,-0.742004 -4.046997,-1.647003c-4.359009,-3.053986 -16.358002,-9.352997 -17.815002,-9.352997c-3.769012,0 1.360992,3.932007 14.60498,11.196991c1.999023,1.096008 2.894043,2.220001 2.528015,3.173004c-0.468994,1.222992 -1.692017,0.971008 -7.132996,-1.470001c-3.611023,-1.619995 -6.769989,-2.742004 -7.019989,-2.492004c-0.25,0.25 1.941986,2.173004 4.871979,4.27301c4.286987,3.074005 4.927979,3.876007 3.289978,4.113007c-2.490967,0.359985 -14.398956,-4.859009 -16.292969,-7.140991c-1.666016,-2.007019 -4.127014,-2.172028 -4.127014,-0.276001c0,1.526001 9.993011,10.543976 17,15.339996c2.475037,1.694 5.236023,3.914001 6.13501,4.931976c0.900024,1.018005 5.849976,6.282013 11,11.698029l9.36499,9.846985l6.237,-0.623993c3.43103,-0.343018 6.80603,-0.856018 7.5,-1.139008zm-10.414001,-3.140991c-1.471985,-0.225006 -3.221985,-1.065002 -3.886963,-1.867004c-1.041992,-1.256012 -0.395996,-1.410004 4.638,-1.108002c5.09198,0.306 6.158997,0.042999 8.233948,-2.03299c1.949036,-1.949005 2.320007,-3.197021 2.031006,-6.834015c-0.375,-4.721008 0.720032,-6.050995 1.716003,-2.083008c1.06604,4.248016 -1.34198,10.533997 -4.855957,12.676025c-1.76001,1.072998 -3.649048,1.884979 -4.199036,1.804993c-0.549988,-0.080017 -2.205017,-0.330017 -3.677002,-0.556zm2.90802,-8.210999c-0.577026,-2.205017 -0.026978,-3.07901 1.934998,-3.07901c1.742004,0 1.713989,2.438995 -0.044006,3.89801c-1.080994,0.897003 -1.489014,0.720001 -1.890991,-0.819zm-83.731018,3.92099c0,-0.549988 -0.449982,-1 -1,-1c-0.549988,0 -1,0.450012 -1,1c0,0.549988 0.450012,1 1,1c0.550018,0 1,-0.450012 1,-1zm30.494019,-19.006989c-0.998016,-1.102997 -2.048004,-1.77301 -2.332001,-1.489014c-0.283997,0.283997 0.350983,1.171997 1.41098,1.973999c2.70401,2.04599 3.048004,1.86499 0.921021,-0.484985zm81.828979,-0.438019c2.202026,-0.492004 3.322998,-1.763 5.096008,-5.779999c2.096008,-4.75 2.16803,-5.496979 0.924988,-9.627991c-2.133972,-7.088989 -5.973999,-12.756012 -10.895996,-16.076996c-2.502014,-1.688995 -4.776001,-3.070007 -5.052979,-3.070007c-0.278015,0 -2.393005,-0.846008 -4.700012,-1.880005c-4.322021,-1.936981 -9.361023,-2.731995 -23.192017,-3.65799c-4.397949,-0.294006 -10.537964,-1.194 -13.643982,-1.998993c-7.419983,-1.923004 -8.474976,-1.910004 -6.822021,0.082001c0.706055,0.849976 1.886047,1.313995 2.623047,1.030975c0.737,-0.281982 1.339966,-0.131989 1.339966,0.334015c0,1.360992 5.036987,2.886993 11.392029,3.450989c3.240967,0.287994 6.390991,1.044006 7,1.679016c0.835999,0.872986 -1.463989,1.027985 -9.392029,0.631989c-5.774963,-0.287994 -11.804993,-0.846985 -13.398987,-1.242981c-1.955994,-0.486023 -2.684021,-0.372009 -2.239014,0.347992c0.363037,0.587006 4.030029,2.067993 8.148987,3.290985c4.119019,1.222015 7.489014,2.606995 7.489014,3.076996c0,1.470001 -9.763977,0.933014 -14.021973,-0.770996c-4.97403,-1.98999 -6.432007,-0.957001 -2.773987,1.964996c4.731995,3.779999 17.570984,9.883026 24.295959,11.550018c2.75,0.682007 6.488037,2.110992 8.307007,3.174988c1.819031,1.065002 4.091003,1.936005 5.049988,1.936005c0.959045,0 4.420044,2.151001 7.692993,4.779999c8.707031,6.997009 10.717041,8.26001 12.419006,7.809998c0.842041,-0.221985 2.801025,-0.687988 4.354004,-1.035004zm-6.656982,-5.221985c-1.275024,-1.276001 -0.64801,-2.291992 2.387024,-3.860992c1.678955,-0.868011 3.961975,-2.488007 5.072998,-3.598999l2.020996,-2.02002l-0.324036,2.791016c-0.213989,1.849976 -1.468994,3.559998 -3.721008,5.072998c-3.630981,2.438995 -4.388,2.664001 -5.435974,1.615997zm-1.119019,-7.257019c-0.313965,-0.507996 0.752991,-1.865997 2.371033,-3.017975c3.677002,-2.618011 5.606995,-0.712006 2.130005,2.103973c-2.53302,2.051025 -3.657043,2.279022 -4.501038,0.914001zm30.953003,-14.998993c2.75,-1.039001 7.473022,-2.450989 10.496033,-3.139008c9.524963,-2.165985 19.471008,-8.937988 13.125977,-8.937988c-1.03302,0 -2.403992,-0.63501 -3.047974,-1.411011c-1.663025,-2.003998 0.106995,-2.832001 5.219971,-2.440002c9.169006,0.703003 16.575012,-3.129974 28.164001,-14.574982c5.419983,-5.35199 4.940979,-6.838989 -1.195984,-3.708008c-2.530029,1.291016 -4.387024,1.675018 -5.317017,1.100006c-1.687012,-1.042999 -1.869019,-0.847992 8.054993,-8.678009c5.881042,-4.640991 8.135986,-7.199982 10.447021,-11.854004c1.619995,-3.263977 3.109009,-7.024994 3.307007,-8.356995c0.197998,-1.333008 0.784973,-3.216003 1.302979,-4.184998c1.22998,-2.296997 1.223999,-11.891998 -0.007996,-11.891998c-0.521973,0 -2.659973,2.136993 -4.75,4.75c-11.648987,14.562012 -27.718994,27.28299 -45.299011,35.858002c-5.224976,2.549011 -10.625,5.406006 -12,6.350006c-1.375,0.944 -4.75,2.300995 -7.5,3.015991c-9.080994,2.358002 -17.85498,7.026001 -13.208008,7.026001c1.759033,0 23.895996,-8.445007 30.152039,-11.502991c6.697998,-3.27301 17.760986,-9.529999 21.011963,-11.882996c1.434021,-1.037018 2.901001,-1.591003 3.261047,-1.230011c1.057983,1.058014 -10.812012,11.911987 -15.717041,14.372986c-2.474976,1.241028 -6.75,3.518005 -9.5,5.059021c-5.323975,2.983002 -18.063965,8.272003 -25.5,10.585999c-4.049011,1.259003 -4.198975,1.408997 -1.5,1.487c1.650024,0.048004 5.454041,-0.56601 8.453003,-1.364014c3,-0.798981 5.661987,-1.242981 5.916992,-0.988983c0.637024,0.638 0.423035,0.783997 -6.369995,4.328003c-5.127991,2.675995 -5.59198,3.131989 -3.190979,3.132996c4.143005,0.003998 2.417969,1.630005 -4.343018,4.095001c-3.281006,1.196991 -5.966003,2.565002 -5.966003,3.041992c0,0.476013 0.947021,1.812012 2.104004,2.970001c2.375,2.375 4.903015,2.181 13.395996,-1.027008zm-16.5,-7.635986c0,-0.243011 -0.701965,-0.44101 -1.55896,-0.44101c-0.858032,0 -1.277039,0.457001 -0.93103,1.015991c0.570984,0.923004 2.48999,0.480011 2.48999,-0.574982zm6.187012,-1.125c-0.721985,-0.287994 -1.583984,-0.253021 -1.916016,0.078979c-0.333008,0.333008 0.257996,0.569 1.312012,0.526001c1.164978,-0.047974 1.401978,-0.284973 0.604004,-0.60498zm-24.187012,-12.178009c9.731995,-1.868011 19.377991,-6.221008 25.841003,-11.658997c3.819031,-3.213013 6.97699,-11.940002 5.294983,-14.632996c-0.625,-1.001007 -1.135986,-2.410004 -1.135986,-3.132019c0,-3.021973 -16.024963,-5.55899 -19.153015,-3.031982c-2.659973,2.14798 -26.517944,9.190002 -34.846985,10.285004c-13.528015,1.777985 -15,2.141998 -15,3.718994c0,1.229004 1.484009,1.354004 9.25,0.778992c5.087036,-0.376984 11.950012,-1.304993 15.25,-2.061005c7.322021,-1.677979 7.763,-1.694977 7.291992,-0.280975c-0.580994,1.741974 -15.398987,5.672974 -24.291992,6.442993c-8.77301,0.759979 -14.461975,2.871979 -12.640991,4.692993c1.716003,1.716003 25.554993,1.095001 29.142029,-0.76001c1.593994,-0.824982 3.467957,-1.498993 4.162964,-1.498993c2.54303,0 -1.643005,2.755005 -7.664001,5.044006c-5.088989,1.934998 -8.011963,2.294983 -19.25,2.368988c-7.286987,0.046997 -13.242981,0.312012 -13.234985,0.587006c0.062988,2.065002 2.465027,3.04599 8.388,3.425995c3.736023,0.239014 7.085022,0.740997 7.44397,1.114014c0.835999,0.869995 29.217041,-0.261993 35.153015,-1.402008zm0.549988,-6.972992c0.522034,-0.459015 3.200012,-1.636993 5.950012,-2.617004c5.970032,-2.127014 11.640015,-5.664001 16.75,-10.445007l3.75,-3.509003l0,2.809021c0,2.078979 -1.299988,4.030975 -4.998962,7.502991c-4.048035,3.800995 -6.103027,4.92099 -10.809998,5.893005c-6.754028,1.394989 -12.019043,1.575989 -10.641052,0.365997zm8.200012,-7.942017c-0.963013,-0.203979 -1.75,-0.777985 -1.75,-1.276001c0,-1.345001 7.88501,-5.121979 9.825012,-4.705994c1.231018,0.264008 0.827026,0.80899 -1.526001,2.05899c-1.76001,0.935028 -3.559998,2.28302 -4,2.996002c-0.439026,0.713013 -1.586975,1.130005 -2.549011,0.927002zm35.825989,-1.886993c5.662048,-2.59201 5.757996,-2.701996 3.619995,-4.122009c-3.585999,-2.380981 -2.557983,-3.213989 3.966003,-3.213989c5.217041,0 6.921997,-0.488007 11.108032,-3.174011l4.945984,-3.173981l-3.607971,-1.561005c-1.985046,-0.859009 -3.608032,-1.854004 -3.608032,-2.209991c0,-0.82901 3.786987,-1.850006 6.924988,-1.868011c1.334045,-0.006989 5.609009,-1.604004 9.5,-3.546997c5.657043,-2.825989 7.627014,-4.444 9.831055,-8.072998l2.756958,-4.537994l-5.154968,0.321991c-7.692017,0.480988 -7.218018,-1.597015 0.848999,-3.721008c9.422974,-2.480988 13.118958,-4.506989 18.674988,-10.233978c5.688965,-5.864014 9.619995,-12.313019 10.609009,-17.406006l0.716003,-3.684998l-4.497009,3.434998c-4.475037,3.415985 -8.747009,4.585999 -7.976013,2.18399c0.221008,-0.687988 2.549988,-2.424988 5.174011,-3.860992c3.227966,-1.765015 5.576965,-4.031006 7.257019,-7c1.365967,-2.414001 3.259949,-5.289001 4.207947,-6.389008c0.949036,-1.100006 2.822998,-4.700012 4.164001,-8c1.96405,-4.832993 2.39801,-7.511002 2.229004,-13.763992c-0.209961,-7.74501 -0.927979,-10.128006 -4.401001,-14.603012l-1.835999,-2.365997l-1.893005,4.365997c-6.734985,15.541 -13.922974,27.981995 -21.878967,37.867004c-10.338013,12.843994 -27.927979,29.657013 -41.257019,39.43399c-3.575012,2.622009 -6.724976,5.100006 -7,5.507019c-0.471008,0.695984 -9.828979,6.376984 -17.054016,10.35199c-2.295959,1.263 -2.945984,2.106995 -2.199951,2.852997c1.088989,1.08902 10.039001,-3.319 18.93396,-9.324005c2.299011,-1.552002 4.401001,-2.821991 4.671997,-2.821991c0.270996,0 4.465027,-2.95401 9.320007,-6.563995c10.289001,-7.649994 33.697021,-30.429016 37.328003,-36.322998c2.518005,-4.089996 5,-5.388 5,-2.615997c0,1.588989 -7.664978,12.462982 -11.323975,16.065002c-1.197021,1.178986 -3.189026,2.674988 -4.426025,3.324982c-1.237976,0.651001 -2.25,1.744995 -2.25,2.432007c0,1.613007 -8.240967,9.539001 -19.002991,18.277008c-10.622986,8.625 -15.812012,12.218994 -23.747009,16.451996c-3.437988,1.833984 -6.25,3.923004 -6.25,4.643005c0,1.714996 2.012024,1.613983 4.44104,-0.223022c1.066956,-0.807983 2.552002,-1.467987 3.297974,-1.467987c0.745972,0 5.400024,-2.700012 10.341003,-6c9.201965,-6.144989 11.265015,-7.062988 10.315979,-4.589996c-0.971985,2.532013 -18.493958,14.549011 -24.531982,16.822998c-1.289001,0.484985 -1.530029,1.557007 -1.135986,5.052002c0.359009,3.182983 0.011963,5.181 -1.229004,7.075012c-2.169006,3.310974 -1.200012,3.306976 6.076965,-0.024017zm-70.575989,-10.868988c4.125,-0.841003 9.299988,-1.777008 11.5,-2.080994c6.338989,-0.873016 18.343018,-5.447021 26.5,-10.096008c4.125,-2.35202 8.009033,-4.278992 8.632019,-4.28302c0.622986,-0.003998 2.872986,-1.727997 5,-3.829987c2.127014,-2.102997 4.654968,-4.114014 5.617981,-4.468994c0.962036,-0.355011 1.75,-1.334991 1.75,-2.177002c0,-0.84201 0.450012,-1.531006 1,-1.531006c0.549988,0 1,-0.584991 1,-1.299988c0,-0.714996 0.504028,-1.805023 1.119995,-2.421021c2.170044,-2.169983 5.869995,-12.826996 5.875,-16.918976c0.007019,-6.134003 -2.247986,-8.252014 -8.994995,-8.444c-7.22699,-0.207001 -11.427979,1.25 -14.649963,5.078979c-7.927002,9.421021 -30.054016,23.039001 -52.684998,32.425995c-5.408997,2.243011 -9.684021,4.529022 -9.5,5.07901c0.18396,0.549988 0.559998,0.912994 0.834961,0.807007c0.275024,-0.106018 4.549988,-1.604004 9.5,-3.32901c4.950012,-1.723999 12.92804,-5.097992 17.729004,-7.496002c9.475037,-4.731995 12.423035,-4.427979 5.559021,0.575012c-5.356995,3.904999 -10.106995,6.380005 -20.27301,10.563995c-8.697998,3.579987 -11.255981,6.084991 -5.213013,5.104004c1.963989,-0.317993 8.799011,-2.463013 15.189026,-4.765015c11.552002,-4.161987 14.000977,-4.462982 11.467957,-1.41098c-1.958984,2.359985 -7.255981,4.780975 -18.458984,8.436981c-11.230957,3.664001 -11.822998,4.007996 -10.925964,6.346008c0.789978,2.059998 2.878967,2.083008 12.425964,0.13501zm42,-21.276001c0,-0.563019 0.413025,-1.175018 0.91803,-1.358002c2.482971,-0.901001 13.08197,-11.382019 13.08197,-12.936005c0,-0.979004 0.450012,-2.057007 1,-2.397003c0.549988,-0.339996 1,-2.875 1,-5.632996c0,-4.235016 0.272034,-4.962006 1.75,-4.682007c1.255005,0.238007 1.832031,1.459991 2.040039,4.322998c0.396973,5.450012 -4.007019,13.828003 -9.790039,18.623016c-4.552002,3.77298 -10,5.985992 -10,4.059998zm2,-10.088013c0,-0.893005 6.618042,-7.102997 7.570007,-7.102997c1.009033,0 -1.867981,4.550995 -3.937012,6.22699c-2.373962,1.923004 -3.632996,2.22702 -3.632996,0.876007zm-56,7.114014c8.166992,-2.151001 23.913025,-10.742004 37,-20.187012c3.025024,-2.182983 6.43103,-4.390991 7.570007,-4.906982c2.85498,-1.29303 11.609009,-11.580017 14.953979,-17.572021c3.452026,-6.184998 5.447998,-13.539978 5.46405,-20.126999c0.008972,-4.104996 -0.458008,-5.516998 -2.443054,-7.381989c-2.06897,-1.944 -3.20697,-2.226013 -7.25,-1.798004c-7.930969,0.839996 -12.181946,3.281998 -19.329956,11.102997c-9.587036,10.490005 -28.893005,24.744003 -45.965027,33.938004c-6.438995,3.46701 -7.727997,5.502991 -3.10498,4.903992c3.497986,-0.453979 14.388977,-6.190002 23.919006,-12.598999c4.57196,-3.074982 8.51001,-5.589996 8.75,-5.589996c0.239014,0 0.435974,0.807007 0.435974,1.794006c0,2.800995 -8.609985,8.828003 -24.932007,17.453003c-4.268982,2.255981 -6.432983,4.752991 -4.117981,4.752991c1.590027,0 9.322021,-4.036011 18.004028,-9.397003c4.098999,-2.531982 7.888977,-4.602997 8.420959,-4.602997c0.531982,0 1.744995,-0.704987 2.697021,-1.56601c0.953979,-0.862976 1.987,-1.14798 2.304016,-0.634979c1.248962,2.020996 -20.757019,17.393005 -28.126038,19.647003c-1.320007,0.403992 -2.25,1.487 -2.25,2.621002c0,1.062988 0.187988,1.932983 0.41803,1.932983c0.490967,0 18.695007,-7.979004 26.450989,-11.592987c2.953003,-1.377014 5.585022,-2.286011 5.849976,-2.022003c1.25,1.251007 -2.097961,3.378998 -16.093994,10.22998c-13.849976,6.779999 -15.179993,7.665009 -15.768982,10.490997c-0.705017,3.386017 -1.200989,3.309021 7.143982,1.111023zm41.619995,-33.022003c-0.294983,-0.479004 1.282043,-2.631012 3.506042,-4.78302c5.237976,-5.069 8.085999,-10.679993 8.58197,-16.911987c0.729004,-9.153 4.247009,-8.384003 4.276001,0.93399c0.017029,5.462006 -2.684021,12.055023 -6.242981,15.238007c-3.616028,3.233002 -9.538025,6.464996 -10.121033,5.52301zm3.871033,-14.843018c1.993958,-4.793976 4.158997,-7.108002 5.432983,-5.809998c1.051025,1.071014 -3.570984,8.515015 -5.72998,9.229004c-0.996033,0.330017 -0.924988,-0.484009 0.296997,-3.419006zm45.265015,39.400024l10.532959,-8.248016l-3.69397,-1.036011c-3.916992,-1.098999 -3.855042,-2.467987 0.112,-2.467987c3.365967,0 13.317993,-5.399994 17.049988,-9.25l3.153015,-3.252991l-4.584045,-0.177002c-7.204956,-0.278992 -6.895996,-1.679016 0.944031,-4.27002c7.903992,-2.613983 11.473022,-5.382996 18.328979,-14.223999c5.208984,-6.71698 5.618042,-8.506989 1.450012,-6.35199c-2.953979,1.528015 -8.049011,2.088989 -8.049011,0.886017c0,-0.998016 3.348022,-3.293015 4.856018,-3.32901c1.489014,-0.035004 8.61499,-5.363998 11.40802,-8.529999c2.060974,-2.337006 9.735962,-17.804001 9.735962,-19.621002c0,-0.681 0.536011,-2.722 1.19104,-4.533997c1.562988,-4.322006 0.763977,-4.899002 -3.329041,-2.404007c-4.86499,2.966003 -6.674011,2.595993 -3.380981,-0.692001c4.320984,-4.315994 8.518982,-14.125992 8.518982,-19.908997c0,-10.147995 -5.799011,-26.089996 -9.560974,-26.285995c-0.583984,-0.031006 -1.64801,2.306992 -2.36499,5.194992c-3.927002,15.819 -11.279053,32.438004 -23.557007,53.25c-7.106995,12.046005 -13.476013,20.113007 -26.585022,33.669006c-5.434021,5.618988 -9.674988,10.421997 -9.424011,10.671997c1.530029,1.529999 23.963989,-19.867004 31.29303,-29.846008c1.815979,-2.472992 5.97998,-8.094986 9.255005,-12.494995c3.273987,-4.399994 7.552002,-11.311996 9.505981,-15.358994c1.955017,-4.047012 3.77301,-7.139999 4.039978,-6.872009c1.189026,1.188004 -5.580994,15.21701 -12.416992,25.731003c-8.841003,13.598999 -15.060974,21.07901 -28.447998,34.210999c-5.651978,5.545013 -9.756958,10.360016 -9.567993,11.222992c0.218018,0.999023 3.861023,-1.875977 10.736023,-8.472992c5.722961,-5.490997 10.609009,-9.779999 10.859009,-9.531006c1.213989,1.214996 -6.975037,10.382019 -18.030029,20.183014c-2.59198,2.298004 -3.703003,4.263 -4.239014,7.5c-0.398987,2.412994 -1.573975,6.158997 -2.610962,8.324005c-1.036011,2.165985 -1.884033,4.440979 -1.884033,5.056c0,0.61499 -1.125,2.643005 -2.5,4.506989c-5.849976,7.928009 -1.364014,6.634003 11.256042,-3.247986zm-3.106018,-12.509003c-0.515991,-0.834015 8.386963,-10.243011 9.692017,-10.243011c1.684998,0 0.346985,2.893005 -2.592041,5.605988c-4.898987,4.519012 -6.518982,5.577026 -7.099976,4.637024zm-11.80603,-21.663025c2.980042,-1.540985 19.156006,-18.08699 19.156006,-19.594986c0,-0.507004 -0.674988,-0.664001 -1.5,-0.347c-0.825012,0.317001 -1.5,0.932007 -1.5,1.369003c0,0.436005 -1.575012,0.792999 -3.5,0.792999c-1.924988,0 -3.5,-0.117004 -3.5,-0.259003c0,-0.543991 10.666992,-7.225006 14.036011,-8.789993c1.945007,-0.903 4.64801,-2.904007 6.007996,-4.447006c3.616028,-4.102005 10.236023,-14.358002 9.647034,-14.945999c-0.278015,-0.278 -1.875,0.201996 -3.549011,1.067993c-1.674011,0.865005 -4.30304,1.573013 -5.843018,1.573013c-2.463013,0 -2.041992,-0.466003 3.51001,-3.881012c3.469971,-2.134995 7.323975,-4.834991 8.563965,-6c1.241028,-1.164993 2.762024,-2.117996 3.381042,-2.117996c1.171997,0 8.855957,-13.813995 9.881958,-17.764999l0.588013,-2.266006l-5.006958,2.516006c-8.317017,4.177002 -10.212036,2.806 -2.692017,-1.947006c6.127014,-3.872986 10.635986,-11.632996 13.872986,-23.877991c3.963989,-14.992996 3.619995,-16.024002 -3.39801,-10.160004c-5.794006,4.839996 -8.508972,4.664001 -3.85498,-0.25c7.614014,-8.041 11.85498,-16.701004 11.85498,-24.209991c0,-6.161011 -5.062988,-18.139008 -10.794006,-25.539009c-3.138,-4.051994 -5.962952,-7.397995 -6.276978,-7.434998c-0.314026,-0.036003 -0.64801,2.520996 -0.742981,5.683998c-0.376038,12.617004 -4.584045,39.429001 -6.866028,43.75c-0.58197,1.100006 -1.357971,3.800003 -1.726013,6c-0.966003,5.777008 0.908997,2.514999 3.005005,-5.231003c0.934021,-3.447998 2.025024,-6.268997 2.426025,-6.268997c2.914978,0 -5.923035,27.942001 -14.075989,44.5c-6.953003,14.121002 -21.322998,36.134003 -29.77301,45.610001c-3.255005,3.649002 -4.161987,5.361008 -3.666016,6.921005c0.557007,1.757996 0.89801,1.875 2.231018,0.770996c1.925964,-1.595001 13.995972,-16.083008 17.122009,-20.552002c1.25,-1.787994 2.668945,-3.25 3.152954,-3.25c1.302002,0 -0.81897,5.410995 -3.067993,7.824005c-1.070984,1.151001 -1.947998,2.388 -1.947998,2.75c0,1.391998 -7.096985,10.17099 -12.471008,15.425995c-5.522949,5.402008 -9.190002,10.671997 -8.148987,11.713013c0.559998,0.559998 7.442017,-4.589996 9.588013,-7.17601c0.701965,-0.845001 1.687012,-1.537003 2.188965,-1.537003c1.860046,0 -1.690979,4.703003 -8.819946,11.681c-4.036011,3.950012 -7.337036,7.662994 -7.337036,8.25c0,1.548004 6.629028,1.311005 9.843994,-0.351013zm-0.878967,-35.512985c1.102966,-2.162003 2.469971,-4.218002 3.036987,-4.569c1.007019,-0.621994 18.127014,-26.018005 18.875,-27.998001c0.208008,-0.550003 2.005005,-3.699997 3.994019,-7c4.770996,-7.916992 14.255981,-29.485001 13.502991,-30.703003c-0.325989,-0.528 -2.059998,2.565002 -3.854004,6.872009c-8.976013,21.54599 -23.502014,45.291 -36.385986,59.477997c-2.709045,2.983002 -4.144043,5.384995 -3.781006,6.330002c0.971008,2.530991 2.498962,1.733002 4.612,-2.410004z" fill="#333333" id="path2206"/>
  <text xml:space="preserve" y="120" x="317" text-anchor="middle" stroke-width="0" fill="#333333" style="cursor: move; pointer-events: inherit;" font-weight="bold" font-size="63" font-family="Sans-serif" id="svg_2">Rest     In</text>
  <text xml:space="preserve" y="199" x="318" text-anchor="middle" stroke-width="0" fill="#333333" style="cursor: move; pointer-events: inherit;" font-weight="bold" font-size="63" font-family="Sans-serif" id="svg_3">PEACE</text>
 </g>
</svg>